<svg viewBox="0 0 640 400" data-background-color="#ffffff" preserveAspectRatio="xMidYMid meet" height="400" width="640" xmlns="http://www.w3.org/2000/svg" xmlns:xlink="http://www.w3.org/1999/xlink"><rect width="640" height="400" x="0" y="0" opacity="1" fill="#ffffff" data-fill-palette-color="background" id="background"></rect><g id="tight-bounds" transform="matrix(1,0,0,1,122.24000000000001,76.4)"><svg viewBox="0 0 395.52 247.2" height="247.2" width="395.52"><g><svg></svg></g><g><svg viewBox="0 0 395.52 247.2" height="247.2" width="395.52"><g transform="matrix(1,0,0,1,85.43250515567401,47.215199999999996)"><svg viewBox="0 0 224.65498968865197 152.7696" height="152.7696" width="224.65498968865197"><g><svg viewBox="0 0 224.65498968865197 152.7696" height="152.7696" width="224.65498968865197"><g><svg viewBox="0 0 244.43135999999998 166.21790215480019" height="152.7696" width="224.65498968865197"><g><svg viewBox="0 0 244.43135999999998 166.21790215480019" height="166.21790215480019" width="244.43135999999998"><g id="textblocktransform"><svg viewBox="0 0 244.43135999999998 166.21790215480019" height="166.21790215480019" width="244.43135999999998" id="textblock"><g><svg viewBox="0 0 244.43135999999998 120.39062607621008" height="120.39062607621008" width="244.43135999999998"><g transform="matrix(1,0,0,1,0,0)"><svg width="244.43135999999998" viewBox="-0.5600000023841858 -36.040000915527344 94.80999755859375 46.709999084472656" height="120.39062607621008" data-palette-color="#4d7e3e"><path d="M3.32-26.42L7.64-26.42 7.64 3.32Q7.57 10.67 1.83 10.67L1.83 10.67Q0.51 10.67-0.54 10.23L-0.54 10.23-0.56 6.62Q0.1 6.81 1.12 6.81L1.12 6.81Q2.22 6.81 2.77 5.99 3.32 5.18 3.32 3.15L3.32 3.15 3.32-26.42ZM7.84-33.42L7.84-33.42Q7.84-32.32 7.23-31.59 6.62-30.86 5.37-30.86L5.37-30.86Q4.15-30.86 3.55-31.59 2.95-32.32 2.95-33.42 2.95-34.52 3.55-35.28 4.15-36.04 5.37-36.04 6.59-36.04 7.21-35.27 7.84-34.5 7.84-33.42ZM13.5-11.55L13.5-14.43Q13.5-20.19 16.29-23.55 19.09-26.9 23.68-26.9 28.27-26.9 31.06-23.63 33.86-20.36 33.93-14.72L33.93-14.72 33.93-11.94Q33.93-6.2 31.15-2.86 28.37 0.49 23.73 0.49L23.73 0.49Q19.14 0.49 16.37-2.76 13.6-6.01 13.5-11.55L13.5-11.55ZM17.82-14.45L17.82-11.94Q17.82-7.86 19.42-5.53 21.02-3.2 23.73-3.2L23.73-3.2Q29.44-3.2 29.61-11.45L29.61-11.45 29.61-14.43Q29.61-18.48 28-20.84 26.39-23.19 23.68-23.19L23.68-23.19Q21.02-23.19 19.42-20.84 17.82-18.48 17.82-14.45L17.82-14.45ZM40.86-32.81L45.16-32.81 45.16-26.42 49.14-26.42 49.14-22.92 45.16-22.92 45.16-6.54Q45.16-4.98 45.67-4.17 46.19-3.37 47.43-3.37L47.43-3.37Q48.29-3.37 49.16-3.66L49.16-3.66 49.12 0Q47.65 0.49 46.11 0.49L46.11 0.49Q43.55 0.49 42.21-1.34 40.86-3.17 40.86-6.52L40.86-6.52 40.86-22.92 36.84-22.92 36.84-26.42 40.86-26.42 40.86-32.81ZM63.44-3.2L63.44-3.2Q65.59-3.2 66.89-4.53 68.18-5.86 68.3-8.33L68.3-8.33 72.38-8.33Q72.23-4.52 69.68-2.01 67.13 0.49 63.44 0.49L63.44 0.49Q58.54 0.49 55.96-2.6 53.39-5.69 53.39-11.79L53.39-11.79 53.39-14.7Q53.39-20.68 55.95-23.79 58.51-26.9 63.42-26.9L63.42-26.9Q67.47-26.9 69.85-24.34 72.23-21.78 72.38-17.33L72.38-17.33 68.3-17.33Q68.16-20.26 66.9-21.73 65.64-23.19 63.42-23.19L63.42-23.19Q60.54-23.19 59.15-21.3 57.76-19.41 57.71-15.09L57.71-15.09 57.71-11.72Q57.71-7.06 59.09-5.13 60.47-3.2 63.44-3.2ZM79.65-26.42L84.85-6.57 89.86-26.42 94.25-26.42 86.42 0 83.19 0 75.26-26.42 79.65-26.42Z" opacity="1" transform="matrix(1,0,0,1,0,0)" fill="#4d7e3e" class="wordmark-text-0" data-fill-palette-color="primary" id="text-0"></path></svg></g></svg></g><g transform="matrix(1,0,0,1,0,148.81196351777746)"><svg viewBox="0 0 244.43135999999998 17.405938637022718" height="17.405938637022718" width="244.43135999999998"><g transform="matrix(1,0,0,1,0,0)"><svg width="244.43135999999998" viewBox="0.25 -33.400001525878906 620.6300048828125 44.20000076293945" height="17.405938637022718" data-palette-color="#4d7e3e"><path d="M37.2-30.6L37.2-31.5 44-31.5 44-30.6 42.15-30.6Q41.45-30.6 41.2-29.9L41.2-29.9 31.95 0 30.25 0 22.1-24.9 14 0 12.3 0 3.05-29.9Q2.8-30.6 2.1-30.6L2.1-30.6 0.25-30.6 0.25-31.5 9.75-31.5 9.75-30.6 7.25-30.6 14.4-6.45 21.25-27.55 20.5-29.9Q20.25-30.6 19.55-30.6L19.55-30.6 17.7-30.6 17.7-31.5 27.2-31.5 27.2-30.6 24.7-30.6 32.25-6.6 39.7-30.6 37.2-30.6ZM44.3-2.45Q41.5-5.5 41.5-10.8 41.5-16.1 44.3-19.15 47.1-22.2 51.6-22.2 56.1-22.2 58.92-19.15 61.75-16.1 61.75-10.8 61.75-5.5 58.92-2.45 56.1 0.6 51.6 0.6 47.1 0.6 44.3-2.45ZM47.1-18.32Q45.3-15.55 45.3-10.8 45.3-6.05 47.1-3.28 48.9-0.5 51.6-0.5 54.3-0.5 56.12-3.28 57.95-6.05 57.95-10.8 57.95-15.55 56.12-18.32 54.3-21.1 51.6-21.1 48.9-21.1 47.1-18.32ZM78.5-22.2Q80.45-22.2 81.67-20.55 82.9-18.9 82.9-16.4 82.9-13.9 80.84-13.9L80.84-13.9Q79.65-13.9 78.9-14.65L78.9-14.65Q79.55-16.1 79.55-17.6L79.55-17.6Q79.55-20.25 77.34-20.25L77.34-20.25Q75.5-20.25 74.07-17.18 72.65-14.1 72.65-8.25L72.65-8.25 72.65-1.6Q72.65-0.9 73.34-0.9L73.34-0.9 76.7-0.9 76.7 0 66 0 66-0.9 68.34-0.9Q69.05-0.9 69.05-1.6L69.05-1.6 69.05-20Q69.05-20.7 68.34-20.7L68.34-20.7 66-20.7 66-21.6 68.45-21.6Q71.45-21.6 72.65-21.9L72.65-21.9 72.65-15.5Q73.45-18.95 75-20.58 76.55-22.2 78.5-22.2ZM87.69-1.6L87.69-1.6 87.69-30.8Q87.69-31.5 86.99-31.5L86.99-31.5 84.64-31.5 84.64-32.4 87.09-32.4Q90.09-32.4 91.29-32.7L91.29-32.7 91.29-1.6Q91.29-0.9 91.99-0.9L91.99-0.9 94.34-0.9 94.34 0 84.64 0 84.64-0.9 86.99-0.9Q87.69-0.9 87.69-1.6ZM112.69 0.3L112.69 0.3 112.69-4Q109.89 0.6 106.07 0.6 102.24 0.6 100.04-2.45 97.84-5.5 97.84-10.75 97.84-16 100.64-19.1 103.44-22.2 107.69-22.2L107.69-22.2Q110.44-22.2 112.69-20.85L112.69-20.85 112.69-30.8Q112.69-31.5 111.99-31.5L111.99-31.5 109.64-31.5 109.64-32.4 112.09-32.4Q115.09-32.4 116.29-32.7L116.29-32.7 116.29-1.6Q116.29-0.9 116.99-0.9L116.99-0.9 119.34-0.9 119.34 0 116.89 0Q113.89 0 112.69 0.3ZM107.82-20.7Q105.24-20.7 103.44-18.13 101.64-15.55 101.64-10.95 101.64-6.35 103.12-3.83 104.59-1.3 106.84-1.3L106.84-1.3Q110.09-1.3 112.69-5.85L112.69-5.85 112.69-19.3Q110.39-20.7 107.82-20.7ZM126.89-30.9L126.89-30.9 125.04-22.2 124.19-22.2 122.34-30.9Q122.34-32.1 122.99-32.75 123.64-33.4 124.64-33.4 125.64-33.4 126.26-32.75 126.89-32.1 126.89-30.9ZM136.89-13.55L136.89-13.55 142.09-11.6Q143.94-10.9 144.91-9.47 145.89-8.05 145.89-6.3L145.89-6.3Q145.89-3.6 143.74-1.5 141.59 0.6 137.96 0.6 134.34 0.6 131.14-0.75L131.14-0.75Q131.44-1.95 131.44-4.95L131.44-4.95 131.44-6.95 132.34-6.95 132.69-4.35Q133.14-0.6 137.94-0.6L137.94-0.6Q140.09-0.6 141.51-1.93 142.94-3.25 142.94-4.95L142.94-4.95Q142.94-7.3 140.09-8.35L140.09-8.35 134.89-10.3Q133.14-10.95 132.24-12.35 131.34-13.75 131.34-15.5L131.34-15.5Q131.34-18.15 133.24-20.18 135.14-22.2 138.01-22.2 140.89-22.2 144.49-20.85L144.49-20.85Q144.19-19.65 144.19-16.65L144.19-16.65 144.19-14.65 143.29-14.65 142.94-17.25Q142.54-20.85 138.39-20.85L138.39-20.85Q136.54-20.85 135.34-19.7 134.14-18.55 134.14-17L134.14-17Q134.14-14.6 136.89-13.55ZM179.98 0L164.28 0 164.28-0.95 170.13-0.95Q170.73-0.95 170.83-1.55L170.83-1.55 170.83-24.55Q170.83-25.8 169.33-25.8L169.33-25.8 163.78-25.5 163.68-26.7 168.23-27.35Q172.53-28 175.03-28.95L175.03-28.95Q174.53-27.05 174.53-23.25L174.53-23.25 174.53-1.65Q174.53-0.95 175.28-0.95L175.28-0.95 179.98-0.95 179.98 0ZM192.28-13.55L192.28-13.55 197.48-11.6Q199.33-10.9 200.3-9.47 201.28-8.05 201.28-6.3L201.28-6.3Q201.28-3.6 199.13-1.5 196.98 0.6 193.35 0.6 189.73 0.6 186.53-0.75L186.53-0.75Q186.83-1.95 186.83-4.95L186.83-4.95 186.83-6.95 187.73-6.95 188.08-4.35Q188.53-0.6 193.33-0.6L193.33-0.6Q195.48-0.6 196.9-1.93 198.33-3.25 198.33-4.95L198.33-4.95Q198.33-7.3 195.48-8.35L195.48-8.35 190.28-10.3Q188.53-10.95 187.63-12.35 186.73-13.75 186.73-15.5L186.73-15.5Q186.73-18.15 188.63-20.18 190.53-22.2 193.4-22.2 196.28-22.2 199.88-20.85L199.88-20.85Q199.58-19.65 199.58-16.65L199.58-16.65 199.58-14.65 198.68-14.65 198.33-17.25Q197.93-20.85 193.78-20.85L193.78-20.85Q191.93-20.85 190.73-19.7 189.53-18.55 189.53-17L189.53-17Q189.53-14.6 192.28-13.55ZM210.43-26.9L210.43-26.9 211.18-26.9 211.18-21.6 216.18-21.6 216.18-20.7 211.18-20.7 211.18-3.75Q211.18-1.05 212.68-1.05L212.68-1.05Q213.38-1.05 213.9-1.7 214.43-2.35 214.43-3.2 214.43-4.05 214.28-4.8L214.28-4.8 215.23-4.95Q215.43-4.2 215.43-3.3L215.43-3.3Q215.43-1.5 214.35-0.45 213.28 0.6 211.53 0.6 209.78 0.6 208.68-0.83 207.58-2.25 207.58-5.1L207.58-5.1 207.58-20Q207.58-20.7 206.88-20.7L206.88-20.7 204.53-20.7 204.53-21.6 206.98-21.6Q208.58-21.6 210.43-26.9ZM258.47-0.9L258.47 0 248.22 0 248.22-0.9 251.47-0.9 247.97-10.55 236.97-10.55 233.47-0.9 236.72-0.9 236.72 0 229.17 0 229.17-0.9 231.02-0.9Q231.72-0.9 231.97-1.6L231.97-1.6 242.97-31.5 244.67-31.5 255.67-1.6Q255.92-0.9 256.62-0.9L256.62-0.9 258.47-0.9ZM247.47-11.95L242.52-25.6 237.52-11.95 247.47-11.95ZM262.77-1.6L262.77-1.6 262.77-30Q262.77-30.6 262.07-30.6L262.07-30.6 259.72-30.6 259.72-31.5 269.92-31.5 269.92-30.6 267.57-30.6Q266.87-30.6 266.87-30L266.87-30 266.87-1.6Q266.87-0.9 267.57-0.9L267.57-0.9 269.92-0.9 269.92 0 259.72 0 259.72-0.9 262.07-0.9Q262.77-0.9 262.77-1.6ZM285.77-10.55L273.17-10.55 273.17-12.55 285.77-12.55 285.77-10.55ZM291.81 9.2L291.81 9.2 291.81-20Q291.81-20.7 291.11-20.7L291.11-20.7 288.76-20.7 288.76-21.6 291.21-21.6Q294.21-21.6 295.41-21.9L295.41-21.9 295.41-14.9Q296.26-18.5 298.14-20.35 300.01-22.2 302.31-22.2L302.31-22.2Q305.46-22.2 307.86-19.05 310.26-15.9 310.26-10.7 310.26-5.5 307.54-2.45 304.81 0.6 300.41 0.6L300.41 0.6Q297.66 0.6 295.41-0.75L295.41-0.75 295.41 9.2Q295.41 9.9 296.11 9.9L296.11 9.9 299.46 9.9 299.46 10.8 288.76 10.8 288.76 9.9 291.11 9.9Q291.81 9.9 291.81 9.2ZM306.46-10.6Q306.46-15.25 305.01-17.78 303.56-20.3 301.34-20.3 299.11-20.3 297.26-17.35 295.41-14.4 295.41-8.85L295.41-8.85 295.41-2.1Q297.61-0.65 300.24-0.65 302.86-0.65 304.66-3.3 306.46-5.95 306.46-10.6ZM317.06-2.45Q314.26-5.5 314.26-10.8 314.26-16.1 317.06-19.15 319.86-22.2 324.36-22.2 328.86-22.2 331.69-19.15 334.51-16.1 334.51-10.8 334.51-5.5 331.69-2.45 328.86 0.6 324.36 0.6 319.86 0.6 317.06-2.45ZM319.86-18.32Q318.06-15.55 318.06-10.8 318.06-6.05 319.86-3.28 321.66-0.5 324.36-0.5 327.06-0.5 328.89-3.28 330.71-6.05 330.71-10.8 330.71-15.55 328.89-18.32 327.06-21.1 324.36-21.1 321.66-21.1 319.86-18.32ZM359.96-20.7L359.96-21.6 366.31-21.6 366.31-20.7 364.46-20.7Q364.01-20.7 363.76-20L363.76-20 357.56 0 356.21 0 351.16-15.45 346.11 0 344.76 0 338.56-20Q338.41-20.7 337.86-20.7L337.86-20.7 336.01-20.7 336.01-21.6 344.46-21.6 344.46-20.7 341.96-20.7 346.46-5.35 351.41-20.7 352.91-20.7 357.86-5.45 362.51-20.7 359.96-20.7ZM377.91-22.2L377.91-22.2Q381.36-22.2 383.36-19.9 385.36-17.6 385.36-13.15L385.36-13.15Q385.36-12.25 385.26-11.15L385.26-11.15 371.61-11.15 371.61-10.8Q371.61-6.05 373.33-3.33 375.06-0.6 377.78-0.6 380.51-0.6 382.26-2 384.01-3.4 384.66-6L384.66-6 385.61-5.8Q385.01-2.75 382.86-1.07 380.71 0.6 377.91 0.6L377.91 0.6Q373.56 0.6 370.68-2.45 367.81-5.5 367.81-10.78 367.81-16.05 370.71-19.13 373.61-22.2 377.91-22.2ZM381.91-14.85L381.91-14.85Q381.91-21 377.31-21L377.31-21Q375.01-21 373.38-18.5 371.76-16 371.66-12.15L371.66-12.15 381.71-12.15Q381.91-13.85 381.91-14.85ZM402.6-22.2Q404.55-22.2 405.78-20.55 407-18.9 407-16.4 407-13.9 404.95-13.9L404.95-13.9Q403.75-13.9 403-14.65L403-14.65Q403.65-16.1 403.65-17.6L403.65-17.6Q403.65-20.25 401.45-20.25L401.45-20.25Q399.6-20.25 398.18-17.18 396.75-14.1 396.75-8.25L396.75-8.25 396.75-1.6Q396.75-0.9 397.45-0.9L397.45-0.9 400.8-0.9 400.8 0 390.1 0 390.1-0.9 392.45-0.9Q393.15-0.9 393.15-1.6L393.15-1.6 393.15-20Q393.15-20.7 392.45-20.7L392.45-20.7 390.1-20.7 390.1-21.6 392.55-21.6Q395.55-21.6 396.75-21.9L396.75-21.9 396.75-15.5Q397.55-18.95 399.1-20.58 400.65-22.2 402.6-22.2ZM419.35-22.2L419.35-22.2Q422.8-22.2 424.8-19.9 426.8-17.6 426.8-13.15L426.8-13.15Q426.8-12.25 426.7-11.15L426.7-11.15 413.05-11.15 413.05-10.8Q413.05-6.05 414.78-3.33 416.5-0.6 419.23-0.6 421.95-0.6 423.7-2 425.45-3.4 426.1-6L426.1-6 427.05-5.8Q426.45-2.75 424.3-1.07 422.15 0.6 419.35 0.6L419.35 0.6Q415 0.6 412.13-2.45 409.25-5.5 409.25-10.78 409.25-16.05 412.15-19.13 415.05-22.2 419.35-22.2ZM423.35-14.85L423.35-14.85Q423.35-21 418.75-21L418.75-21Q416.45-21 414.83-18.5 413.2-16 413.1-12.15L413.1-12.15 423.15-12.15Q423.35-13.85 423.35-14.85ZM446.15 0.3L446.15 0.3 446.15-4Q443.35 0.6 439.52 0.6 435.7 0.6 433.5-2.45 431.3-5.5 431.3-10.75 431.3-16 434.1-19.1 436.9-22.2 441.15-22.2L441.15-22.2Q443.9-22.2 446.15-20.85L446.15-20.85 446.15-30.8Q446.15-31.5 445.45-31.5L445.45-31.5 443.1-31.5 443.1-32.4 445.55-32.4Q448.55-32.4 449.75-32.7L449.75-32.7 449.75-1.6Q449.75-0.9 450.45-0.9L450.45-0.9 452.8-0.9 452.8 0 450.35 0Q447.35 0 446.15 0.3ZM441.27-20.7Q438.7-20.7 436.9-18.13 435.1-15.55 435.1-10.95 435.1-6.35 436.57-3.83 438.05-1.3 440.3-1.3L440.3-1.3Q443.55-1.3 446.15-5.85L446.15-5.85 446.15-19.3Q443.85-20.7 441.27-20.7ZM490.94-1.05L490.94-1.05Q491.69-1.05 492.17-1.68 492.64-2.3 492.64-3.18 492.64-4.05 492.49-4.8L492.49-4.8 493.44-4.95Q493.64-4.2 493.64-3.3L493.64-3.3Q493.64-1.5 492.57-0.45 491.49 0.6 489.79 0.6L489.79 0.6Q485.54 0.6 485.54-4.55 485.54-9.7 484.24-12.13 482.94-14.55 478.94-14.55L478.94-14.55 475.69-14.55 475.69-1.6Q475.69-0.9 476.39-0.9L476.39-0.9 479.74-0.9 479.74 0 468.54 0 468.54-0.9 470.89-0.9Q471.59-0.9 471.59-1.6L471.59-1.6 471.59-30Q471.59-30.6 470.89-30.6L470.89-30.6 468.54-30.6 468.54-31.5 480.99-31.5Q485.19-31.5 488.14-29.2 491.09-26.9 491.09-23.05L491.09-23.05Q491.09-19.95 489.17-17.82 487.24-15.7 484.09-14.9L484.09-14.9Q487.64-13.7 488.59-10.6L488.59-10.6Q489.34-8.05 489.34-4.55 489.34-1.05 490.94-1.05ZM480.74-30.1L480.74-30.1 475.69-30.1 475.69-16 480.74-16Q483.74-16 485.42-18.1 487.09-20.2 487.09-23.05 487.09-25.9 485.42-28 483.74-30.1 480.74-30.1ZM505.39-22.2L505.39-22.2Q508.84-22.2 510.84-19.9 512.84-17.6 512.84-13.15L512.84-13.15Q512.84-12.25 512.74-11.15L512.74-11.15 499.09-11.15 499.09-10.8Q499.09-6.05 500.82-3.33 502.54-0.6 505.27-0.6 507.99-0.6 509.74-2 511.49-3.4 512.14-6L512.14-6 513.09-5.8Q512.49-2.75 510.34-1.07 508.19 0.6 505.39 0.6L505.39 0.6Q501.04 0.6 498.17-2.45 495.29-5.5 495.29-10.78 495.29-16.05 498.19-19.13 501.09-22.2 505.39-22.2ZM509.39-14.85L509.39-14.85Q509.39-21 504.79-21L504.79-21Q502.49-21 500.87-18.5 499.24-16 499.14-12.15L499.14-12.15 509.19-12.15Q509.39-13.85 509.39-14.85ZM523.84-13.55L523.84-13.55 529.04-11.6Q530.89-10.9 531.86-9.47 532.84-8.05 532.84-6.3L532.84-6.3Q532.84-3.6 530.69-1.5 528.54 0.6 524.91 0.6 521.29 0.6 518.09-0.75L518.09-0.75Q518.39-1.95 518.39-4.95L518.39-4.95 518.39-6.95 519.29-6.95 519.64-4.35Q520.09-0.6 524.89-0.6L524.89-0.6Q527.04-0.6 528.46-1.93 529.89-3.25 529.89-4.95L529.89-4.95Q529.89-7.3 527.04-8.35L527.04-8.35 521.84-10.3Q520.09-10.95 519.19-12.35 518.29-13.75 518.29-15.5L518.29-15.5Q518.29-18.15 520.19-20.18 522.09-22.2 524.96-22.2 527.84-22.2 531.44-20.85L531.44-20.85Q531.14-19.65 531.14-16.65L531.14-16.65 531.14-14.65 530.24-14.65 529.89-17.25Q529.49-20.85 525.34-20.85L525.34-20.85Q523.49-20.85 522.29-19.7 521.09-18.55 521.09-17L521.09-17Q521.09-14.6 523.84-13.55ZM556.43-21.9L556.43-21.9 556.43-1.6Q556.43-0.9 557.13-0.9L557.13-0.9 559.48-0.9 559.48 0 557.03 0Q554.03 0 552.83 0.3L552.83 0.3 552.83-6.45Q551.13 0.6 545.33 0.6L545.33 0.6Q542.73 0.6 540.93-1.28 539.13-3.15 539.13-7L539.13-7 539.13-20Q539.13-20.7 538.43-20.7L538.43-20.7 536.08-20.7 536.08-21.6 538.53-21.6Q541.53-21.6 542.73-21.9L542.73-21.9 542.73-6.35Q542.73-3.8 543.86-2.58 544.98-1.35 546.83-1.35L546.83-1.35Q549.48-1.35 551.16-4.58 552.83-7.8 552.83-13.85L552.83-13.85 552.83-20Q552.83-20.7 552.13-20.7L552.13-20.7 549.78-20.7 549.78-21.6 552.23-21.6Q555.23-21.6 556.43-21.9ZM596.28-14.6L596.28-14.6 596.28-1.5Q596.28-0.9 596.98-0.9L596.98-0.9 599.33-0.9 599.33 0 590.33 0 590.33-0.9 591.98-0.9Q592.68-0.9 592.68-1.5L592.68-1.5 592.68-15.25Q592.68-17.8 591.63-19.03 590.58-20.25 588.78-20.25L588.78-20.25Q586.28-20.25 584.68-17.03 583.08-13.8 583.08-7.75L583.08-7.75 583.08-1.6Q583.08-0.9 583.78-0.9L583.78-0.9 586.13-0.9 586.13 0 577.13 0 577.13-0.9 578.78-0.9Q579.48-0.9 579.48-1.5L579.48-1.5 579.48-15.25Q579.48-17.8 578.43-19.03 577.38-20.25 575.58-20.25L575.58-20.25Q573.08-20.25 571.48-17.03 569.88-13.8 569.88-7.75L569.88-7.75 569.88-1.6Q569.88-0.9 570.58-0.9L570.58-0.9 572.23-0.9 572.23 0 563.23 0 563.23-0.9 565.58-0.9Q566.28-0.9 566.28-1.5L566.28-1.5 566.28-20Q566.28-20.7 565.58-20.7L565.58-20.7 563.23-20.7 563.23-21.6 565.68-21.6Q568.68-21.6 569.88-21.9L569.88-21.9 569.88-15.2Q571.53-22.2 576.98-22.2L576.98-22.2Q579.38-22.2 581.16-20.45 582.93-18.7 583.08-15.15L583.08-15.15Q584.73-22.2 590.18-22.2L590.18-22.2Q592.68-22.2 594.48-20.33 596.28-18.45 596.28-14.6ZM613.18-22.2L613.18-22.2Q616.63-22.2 618.63-19.9 620.63-17.6 620.63-13.15L620.63-13.15Q620.63-12.25 620.53-11.15L620.53-11.15 606.88-11.15 606.88-10.8Q606.88-6.05 608.6-3.33 610.33-0.6 613.05-0.6 615.78-0.6 617.53-2 619.28-3.4 619.93-6L619.93-6 620.88-5.8Q620.28-2.75 618.13-1.07 615.98 0.6 613.18 0.6L613.18 0.6Q608.83 0.6 605.95-2.45 603.08-5.5 603.08-10.78 603.08-16.05 605.98-19.13 608.88-22.2 613.18-22.2ZM617.18-14.85L617.18-14.85Q617.18-21 612.58-21L612.58-21Q610.28-21 608.65-18.5 607.03-16 606.93-12.15L606.93-12.15 616.98-12.15Q617.18-13.85 617.18-14.85Z" opacity="1" transform="matrix(1,0,0,1,0,0)" fill="#4d7e3e" class="slogan-text-1" data-fill-palette-color="secondary" id="text-1"></path></svg></g></svg></g></svg></g></svg></g></svg></g></svg></g></svg></g><g><path d="M0 123.6c0-68.262 55.338-123.6 123.6-123.6 33.077 0 63.12 12.993 85.302 34.154l-7.402 0c-20.839-18.164-48.085-29.165-77.9-29.165-65.507 0-118.611 53.104-118.611 118.611 0 65.507 53.104 118.611 118.611 118.611 29.815 0 57.061-11.001 77.9-29.165l7.402 0c-22.182 21.161-52.225 34.154-85.302 34.154-68.262 0-123.6-55.338-123.6-123.6z" fill="#4d7e3e" stroke="transparent" data-fill-palette-color="tertiary"></path></g></svg></g><defs></defs></svg><rect width="395.52" height="247.2" fill="none" stroke="none" visibility="hidden"></rect></g></svg>